<svg width="40" height="40" viewBox="0 0 40 40" fill="none" xmlns="http://www.w3.org/2000/svg">
<path d="M10 22.5H17.5V25H10V22.5ZM10 27.5H22.5V30H10V27.5Z" fill="#0072BC"/>
<path d="M32.5 5H7.5C6.83726 5.00099 6.20195 5.2647 5.73333 5.73333C5.2647 6.20195 5.00099 6.83726 5 7.5V32.5C5.00099 33.1627 5.2647 33.798 5.73333 34.2667C6.20195 34.7353 6.83726 34.999 7.5 35H32.5C33.1627 34.999 33.798 34.7353 34.2667 34.2667C34.7353 33.798 34.999 33.1627 35 32.5V7.5C34.999 6.83726 34.7353 6.20195 34.2667 5.73333C33.798 5.2647 33.1627 5.00099 32.5 5ZM22.5 7.5V12.5H17.5V7.5H22.5ZM7.5 32.5V7.5H15V15H25V7.5H32.5L32.5012 32.5H7.5Z" fill="#0072BC"/>
</svg>
