<svg width="40" height="40" viewBox="0 0 40 40" fill="none" xmlns="http://www.w3.org/2000/svg">
<path d="M22.4997 25H9.99967C6.85634 25 5.28634 25 4.30967 24.0233C3.33301 23.0467 3.33301 21.4767 3.33301 18.3333V11.6667C3.33301 8.52333 3.33301 6.95333 4.30967 5.97667C5.28634 5 6.85634 5 9.99967 5H29.9997C33.143 5 34.713 5 35.6897 5.97667C36.6663 6.95333 36.6663 8.52333 36.6663 11.6667V20C36.6663 21.5533 36.6663 22.33 36.413 22.9417C36.2455 23.3464 35.9998 23.7141 35.6901 24.0238C35.3804 24.3335 35.0127 24.5791 34.608 24.7467C33.9963 25 33.2197 25 31.6663 25" stroke="#0072BC" stroke-width="2.5" stroke-linecap="round" stroke-linejoin="round"/>
<path d="M21.6667 28.3333C21.6667 27.0072 22.1934 25.7355 23.1311 24.7978C24.0688 23.8601 25.3406 23.3333 26.6667 23.3333V20C26.6667 18.6739 27.1934 17.4021 28.1311 16.4645C29.0688 15.5268 30.3406 15 31.6667 15V24.1667C31.6667 28.0583 31.6667 30.0033 30.88 31.4767C30.2585 32.6394 29.3061 33.5918 28.1433 34.2133C26.67 35 24.725 35 20.8333 35H20C16.8933 35 15.34 35 14.1167 34.4917C13.3076 34.157 12.5723 33.6662 11.9529 33.0474C11.3335 32.4286 10.8421 31.6938 10.5067 30.885C10 29.66 10 28.1067 10 25M23.3333 15C23.3333 15.884 22.9821 16.7319 22.357 17.357C21.7319 17.9821 20.8841 18.3333 20 18.3333C19.1159 18.3333 18.2681 17.9821 17.643 17.357C17.0179 16.7319 16.6667 15.884 16.6667 15C16.6667 14.1159 17.0179 13.2681 17.643 12.643C18.2681 12.0178 19.1159 11.6667 20 11.6667C20.8841 11.6667 21.7319 12.0178 22.357 12.643C22.9821 13.2681 23.3333 14.1159 23.3333 15Z" stroke="#0072BC" stroke-width="2.5" stroke-linecap="round" stroke-linejoin="round"/>
</svg>
