<svg width="40" height="40" viewBox="0 0 40 40" fill="none" xmlns="http://www.w3.org/2000/svg">
<path d="M3.33301 7.5H14.5947C15.2515 7.49992 15.9019 7.62926 16.5088 7.88063C17.1156 8.132 17.667 8.50048 18.1313 8.965L23.333 14.1667M8.33301 22.5H3.33301M14.1663 12.5L17.4997 15.8333C17.7185 16.0522 17.8922 16.312 18.0106 16.598C18.1291 16.884 18.19 17.1905 18.19 17.5C18.19 17.8095 18.1291 18.116 18.0106 18.402C17.8922 18.688 17.7185 18.9478 17.4997 19.1667C17.2808 19.3855 17.021 19.5592 16.735 19.6776C16.449 19.7961 16.1425 19.857 15.833 19.857C15.5235 19.857 15.217 19.7961 14.931 19.6776C14.645 19.5592 14.3852 19.3855 14.1663 19.1667L11.6663 16.6667C10.233 18.1 7.96134 18.2617 6.33801 17.045L5.83301 16.6667" stroke="#0072BC" stroke-width="2.5" stroke-linecap="round" stroke-linejoin="round"/>
<path d="M8.33301 18.3333V25.8333C8.33301 28.9767 8.33301 30.5467 9.30967 31.5233C10.2863 32.5 11.8563 32.5 14.9997 32.5H29.9997C33.143 32.5 34.713 32.5 35.6897 31.5233C36.6663 30.5467 36.6663 28.9767 36.6663 25.8333V20.8333C36.6663 17.69 36.6663 16.12 35.6897 15.1433C34.713 14.1667 33.143 14.1667 29.9997 14.1667H15.833" stroke="#0072BC" stroke-width="2.5" stroke-linecap="round" stroke-linejoin="round"/>
<path d="M25.4163 23.3333C25.4163 24.1069 25.1091 24.8487 24.5621 25.3957C24.0151 25.9427 23.2732 26.25 22.4997 26.25C21.7261 26.25 20.9843 25.9427 20.4373 25.3957C19.8903 24.8487 19.583 24.1069 19.583 23.3333C19.583 22.5598 19.8903 21.8179 20.4373 21.2709C20.9843 20.7239 21.7261 20.4167 22.4997 20.4167C23.2732 20.4167 24.0151 20.7239 24.5621 21.2709C25.1091 21.8179 25.4163 22.5598 25.4163 23.3333Z" stroke="#0072BC" stroke-width="2.5" stroke-linecap="round" stroke-linejoin="round"/>
</svg>
