<svg width="40" height="40" viewBox="0 0 40 40" fill="none" xmlns="http://www.w3.org/2000/svg">
<path d="M23.333 3.70333C22.2552 3.48333 21.1441 3.37222 19.9997 3.37C10.7947 3.37 3.33301 10.8233 3.33301 20.0183C3.33301 29.2133 10.7947 36.6667 19.9997 36.6667C29.2047 36.6667 36.6663 29.2133 36.6663 20.0183C36.6641 18.8772 36.553 17.7672 36.333 16.6883" stroke="#0072BC" stroke-width="2.375" stroke-linecap="round" stroke-linejoin="round"/>
<path d="M19.9993 15.0233C18.1577 15.0233 16.666 16.1417 16.666 17.5217C16.666 18.9 18.1577 20.0183 19.9993 20.0183C21.841 20.0183 23.3327 21.135 23.3327 22.515C23.3327 23.895 21.841 25.0133 19.9993 25.0133M19.9993 15.0233C21.4493 15.0233 22.686 15.7183 23.1427 16.69M19.9993 15.0233V13.3583M19.9993 25.0133C18.5493 25.0133 17.3127 24.3183 16.856 23.3467M19.9993 25.0133V26.6783M36.6577 3.33334L29.6993 10.29M28.326 4.20168L28.5227 9.34834C28.5227 10.5617 29.2477 11.3183 30.5693 11.4133L35.776 11.6583" stroke="#0072BC" stroke-width="2.375" stroke-linecap="round" stroke-linejoin="round"/>
</svg>
