<svg width="40" height="40" viewBox="0 0 40 40" fill="none" xmlns="http://www.w3.org/2000/svg">
<path d="M34.905 28.0583C33.9915 22.6058 31.3809 17.5806 27.445 13.6983C26.5833 12.86 26.1533 12.4416 25.2016 12.055C24.25 11.6666 23.4316 11.6666 21.7966 11.6666H18.2033C16.5683 11.6666 15.75 11.6666 14.7983 12.055C13.8483 12.4416 13.415 12.86 12.555 13.6983C8.61906 17.5806 6.00847 22.6058 5.09497 28.0583C4.2833 32.955 8.79997 36.6666 13.8466 36.6666H26.1533C31.2016 36.6666 35.72 32.955 34.9033 28.0583" stroke="#0072BC" stroke-width="2.125" stroke-linecap="round" stroke-linejoin="round"/>
<path d="M12.0947 7.40498C11.7497 6.90498 11.2513 6.22498 12.2813 6.07165C13.3397 5.91165 14.438 6.63498 15.5147 6.62165C16.4863 6.60665 16.9813 6.17498 17.5147 5.55831C18.0747 4.90998 18.9413 3.33331 19.9997 3.33331C21.058 3.33331 21.9247 4.90998 22.4847 5.55831C23.018 6.17498 23.513 6.60831 24.4847 6.61998C25.5613 6.63665 26.6597 5.91165 27.718 6.06998C28.748 6.22498 28.2497 6.90331 27.9047 7.40331L26.3513 9.66831C25.6847 10.635 25.353 11.1183 24.6563 11.3933C23.9597 11.6683 23.0613 11.6666 21.263 11.6666H18.7363C16.9363 11.6666 16.038 11.6666 15.343 11.3933C14.648 11.12 14.3147 10.6333 13.648 9.66665L12.0947 7.40498Z" stroke="#0072BC" stroke-width="2.125" stroke-linecap="round" stroke-linejoin="round"/>
</svg>
