<svg width="40" height="40" viewBox="0 0 40 40" fill="none" xmlns="http://www.w3.org/2000/svg">
<path d="M26.6658 21.6664H30.833C31.4851 21.6499 32.1049 21.3793 32.5603 20.9122C33.0157 20.4452 33.2706 19.8187 33.2706 19.1664C33.2706 18.5141 33.0157 17.8876 32.5603 17.4206C32.1049 16.9535 31.4851 16.6829 30.833 16.6664H29.1658C28.5028 16.6664 27.8669 16.403 27.398 15.9342C26.9292 15.4653 26.6658 14.8294 26.6658 14.1664C26.6658 13.5034 26.9292 12.8675 27.398 12.3986C27.8669 11.9298 28.5028 11.6664 29.1658 11.6664H33.333M19.9994 18.3336H13.333M29.9994 11.6664V10M29.9994 23.3336V21.6664M19.9994 25H13.333" stroke="#0072BC" stroke-width="1.6" stroke-linecap="round" stroke-linejoin="round"/>
<path d="M23.3332 5H8.33322C8.11431 4.9999 7.89754 5.04292 7.69527 5.12662C7.493 5.21032 7.3092 5.33304 7.15438 5.48779C6.99955 5.64254 6.87673 5.82628 6.79294 6.02851C6.70914 6.23074 6.66602 6.4475 6.66602 6.6664V35L10.566 33.3336L14.45 35L18.3332 33.3336L22.2164 35L26.0996 33.3336L29.9996 35V30" stroke="#0072BC" stroke-width="1.6" stroke-linecap="round" stroke-linejoin="round"/>
</svg>
