<svg width="40" height="40" viewBox="0 0 40 40" fill="none" xmlns="http://www.w3.org/2000/svg">
<path d="M9.09465 7.45001C9.49176 7.45001 9.88497 7.37177 10.2518 7.21977C10.6187 7.06776 10.952 6.84497 11.2328 6.56411C11.5135 6.28326 11.7362 5.94984 11.888 5.58292C12.0399 5.21599 12.1179 4.82274 12.1178 4.42563C12.1178 4.02863 12.0396 3.63552 11.8877 3.26873C11.7357 2.90195 11.513 2.56868 11.2323 2.28796C10.9516 2.00724 10.6183 1.78456 10.2515 1.63263C9.88477 1.4807 9.49165 1.40251 9.09465 1.40251C8.69765 1.40251 8.30453 1.4807 7.93775 1.63263C7.57097 1.78456 7.2377 2.00724 6.95698 2.28796C6.67625 2.56868 6.45357 2.90195 6.30164 3.26873C6.14972 3.63552 6.07152 4.02863 6.07152 4.42563C6.07169 5.22748 6.39021 5.99646 6.95708 6.56356C7.52396 7.13067 8.2928 7.44951 9.09465 7.45001ZM31.7834 7.40751C32.598 7.40734 33.3791 7.08373 33.9551 6.50781C34.5312 5.9319 34.8549 5.15081 34.8553 4.33626C34.8553 3.52179 34.5317 2.74069 33.9558 2.16478C33.3799 1.58886 32.5988 1.26532 31.7843 1.26532C30.9699 1.26532 30.1888 1.58886 29.6129 2.16478C29.0369 2.74069 28.7134 3.52179 28.7134 4.33626C28.7131 4.73957 28.7922 5.13899 28.9464 5.51167C29.1005 5.88436 29.3266 6.22301 29.6118 6.50825C29.8969 6.79349 30.2355 7.01973 30.6081 7.17403C30.9807 7.32833 31.3801 7.40767 31.7834 7.40751ZM7.97777 24.6613C4.00277 24.6613 0.780273 27.8831 0.780273 31.8581C0.780273 35.8331 4.00277 39.0556 7.97777 39.0556C11.9528 39.0556 15.1753 35.8331 15.1753 31.8581C15.1753 27.8838 11.9528 24.6613 7.97777 24.6613ZM8.8309 36.4269V37.5769H7.11027V36.4269C5.27527 36.2169 4.10465 34.47 4.10465 33.3281H5.93902C5.93902 33.8413 6.33465 34.5231 7.12715 34.6863V32.53C6.73152 32.4538 6.51027 32.3913 6.0859 32.275C5.00152 31.9756 4.2509 31.0625 4.2509 29.8988C4.2509 28.7456 5.37652 27.4519 7.1109 27.2225V26.1481H8.83152V27.2225C10.6709 27.4594 11.8021 28.8181 11.8021 30.1763L10.0053 30.1756C10.004 29.5819 9.51027 29.0425 8.83152 28.9763V30.9988C9.3309 31.1088 9.3309 31.0963 9.78965 31.2213C11.5009 31.6869 11.8865 32.8069 11.8865 33.7463C11.8859 35.1888 10.7328 36.1781 8.8309 36.4269Z" fill="#0072BC"/>
<path d="M7.11027 30.6825C6.34152 30.5456 6.1284 30.2169 6.1284 29.8619C6.1284 29.4475 6.64965 29.0481 7.11027 28.9944V30.6825ZM8.85152 34.6781V32.8556C9.6109 32.9644 10.0921 33.2912 10.0921 33.7606C10.0921 34.1756 9.64402 34.6481 8.85152 34.6781ZM5.14902 12.6875H6.3409L4.9634 17.8144H13.2253L11.8478 12.6875H13.0397L14.4515 17.8144H17.1097L15.404 11.5956C14.949 10.0919 13.4609 8.49625 11.5109 8.49625H6.6759C4.72402 8.49625 3.23652 10.0912 2.7809 11.5956L1.07715 17.8144H3.73527L5.14902 12.6875Z" fill="#0072BC"/>
<path d="M35.0646 8.46564C35.4233 8.46539 35.7787 8.53583 36.1102 8.67294C36.4418 8.81005 36.743 9.01114 36.9968 9.26472C37.2507 9.5183 37.452 9.8194 37.5894 10.1508C37.7268 10.4822 37.7976 10.8375 37.7977 11.1963L37.7933 19.58H39.5527V23.0169L35.9927 23.0188V37.2525C35.9927 38.2475 35.1764 39.0544 34.1808 39.0544C33.7032 39.0539 33.2453 38.8639 32.9077 38.526C32.5701 38.1882 32.3804 37.7301 32.3802 37.2525V23.02H31.2321V37.2525C31.2317 37.7306 31.0415 38.189 30.7033 38.5269C30.365 38.8648 29.9064 39.0546 29.4283 39.0544C28.9497 39.0546 28.4905 38.865 28.1514 38.5273C27.8122 38.1895 27.6208 37.7311 27.6189 37.2525V23.0213L0.77832 23.0294V19.58H27.6189V11.5081L21.8852 18.2969C20.6789 19.69 18.5308 17.95 19.7414 16.46L25.6827 9.32189C26.0671 8.93939 26.4114 8.46564 27.8302 8.46564H35.0633H35.0646Z" fill="#0072BC"/>
</svg>
