<svg width="40" height="40" viewBox="0 0 40 40" fill="none" xmlns="http://www.w3.org/2000/svg">
<g clip-path="url(#clip0_1894_478)">
<path d="M40 35L32.5 40V37.5H20.625L25.625 32.5H32.5V30L40 35ZM0 5L7.5 0V2.5H19.375L14.375 7.5H7.5V10L0 5ZM24.35 0L0 24.35L15.65 40L40 15.65L24.35 0ZM3.475 24.35L24.35 3.475L36.525 15.65L15.65 36.525L3.475 24.35Z" fill="#0072BC"/>
<path d="M10.4248 24.35L8.6748 26.1L13.8998 31.325L15.6498 29.575L17.4998 31.3L24.3498 24.35C23.1904 25.4757 21.6346 26.1 20.0186 26.0881C18.4027 26.0762 16.8563 25.4289 15.7136 24.2862C14.5709 23.1436 13.9237 21.5972 13.9117 19.9812C13.8998 18.3652 14.5241 16.8095 15.6498 15.65L8.6998 22.5L10.4248 24.35Z" fill="#0072BC"/>
<path d="M31.3004 13.925L26.0754 8.70001L24.3254 10.45L22.5004 8.70001L15.6504 15.65C16.8098 14.5243 18.3656 13.9 19.9816 13.9119C21.5975 13.9239 23.1439 14.5711 24.2866 15.7138C25.4293 16.8565 26.0765 18.4029 26.0885 20.0188C26.1004 21.6348 25.4761 23.1906 24.3504 24.35L31.3004 17.5L29.5504 15.75L31.3004 13.925Z" fill="#0072BC"/>
</g>
<defs>
<clipPath id="clip0_1894_478">
<rect width="40" height="40" fill="white"/>
</clipPath>
</defs>
</svg>
