<svg width="23" height="24" viewBox="0 0 23 24" fill="none" xmlns="http://www.w3.org/2000/svg">
<path d="M11.5003 13.3417L6.80443 18.0375C6.62873 18.2132 6.40512 18.3011 6.13359 18.3011C5.86207 18.3011 5.63845 18.2132 5.46276 18.0375C5.28707 17.8618 5.19922 17.6382 5.19922 17.3667C5.19922 17.0952 5.28707 16.8715 5.46276 16.6958L10.1586 12L5.46276 7.30418C5.28707 7.12849 5.19922 6.90488 5.19922 6.63335C5.19922 6.36182 5.28707 6.13821 5.46276 5.96252C5.63845 5.78682 5.86207 5.69897 6.13359 5.69897C6.40512 5.69897 6.62873 5.78682 6.80443 5.96252L11.5003 10.6583L16.1961 5.96252C16.3718 5.78682 16.5954 5.69897 16.8669 5.69897C17.1385 5.69897 17.3621 5.78682 17.5378 5.96252C17.7135 6.13821 17.8013 6.36182 17.8013 6.63335C17.8013 6.90488 17.7135 7.12849 17.5378 7.30418L12.8419 12L17.5378 16.6958C17.7135 16.8715 17.8013 17.0952 17.8013 17.3667C17.8013 17.6382 17.7135 17.8618 17.5378 18.0375C17.3621 18.2132 17.1385 18.3011 16.8669 18.3011C16.5954 18.3011 16.3718 18.2132 16.1961 18.0375L11.5003 13.3417Z" fill="#0072BC"/>
</svg>
