<svg width="25" height="24" viewBox="0 0 25 24" fill="none" xmlns="http://www.w3.org/2000/svg">
<path d="M5.69238 11C5.42438 11 5.19072 10.9003 4.99138 10.701C4.79205 10.5017 4.69238 10.268 4.69238 10V5C4.69238 4.732 4.79205 4.49833 4.99138 4.299C5.19072 4.09967 5.42438 4 5.69238 4H10.6924C10.9604 4 11.194 4.09967 11.3934 4.299C11.5927 4.49833 11.6924 4.732 11.6924 5V10C11.6924 10.268 11.5927 10.5017 11.3934 10.701C11.194 10.9003 10.9604 11 10.6924 11H5.69238ZM5.69238 20C5.42438 20 5.19072 19.9003 4.99138 19.701C4.79205 19.5017 4.69238 19.268 4.69238 19V14C4.69238 13.732 4.79205 13.4983 4.99138 13.299C5.19072 13.0997 5.42438 13 5.69238 13H10.6924C10.9604 13 11.194 13.0997 11.3934 13.299C11.5927 13.4983 11.6924 13.732 11.6924 14V19C11.6924 19.268 11.5927 19.5017 11.3934 19.701C11.194 19.9003 10.9604 20 10.6924 20H5.69238ZM14.6924 11C14.4244 11 14.1907 10.9003 13.9914 10.701C13.792 10.5017 13.6924 10.268 13.6924 10V5C13.6924 4.732 13.792 4.49833 13.9914 4.299C14.1907 4.09967 14.4244 4 14.6924 4H19.6924C19.9604 4 20.194 4.09967 20.3934 4.299C20.5927 4.49833 20.6924 4.732 20.6924 5V10C20.6924 10.268 20.5927 10.5017 20.3934 10.701C20.194 10.9003 19.9604 11 19.6924 11H14.6924ZM14.6924 20C14.4244 20 14.1907 19.9003 13.9914 19.701C13.792 19.5017 13.6924 19.268 13.6924 19V14C13.6924 13.732 13.792 13.4983 13.9914 13.299C14.1907 13.0997 14.4244 13 14.6924 13H19.6924C19.9604 13 20.194 13.0997 20.3934 13.299C20.5927 13.4983 20.6924 13.732 20.6924 14V19C20.6924 19.268 20.5927 19.5017 20.3934 19.701C20.194 19.9003 19.9604 20 19.6924 20H14.6924ZM5.69238 10H10.6924V5H5.69238V10ZM14.6924 10H19.6924V5H14.6924V10ZM14.6924 19H19.6924V14H14.6924V19ZM5.69238 19H10.6924V14H5.69238V19Z" fill="#0072BC"/>
</svg>
