<svg width="23" height="24" viewBox="0 0 23 24" fill="none" xmlns="http://www.w3.org/2000/svg">
<path d="M10.0625 6.25C10.0625 6.04875 10.0625 5.94956 10.074 5.86619C10.1106 5.60271 10.2322 5.35836 10.4203 5.17026C10.6084 4.98217 10.8527 4.86059 11.1162 4.824C11.1981 4.8125 11.2987 4.8125 11.5 4.8125C11.7013 4.8125 11.8004 4.8125 11.8838 4.824C12.1473 4.86059 12.3916 4.98217 12.5797 5.17026C12.7678 5.35836 12.8894 5.60271 12.926 5.86619C12.9375 5.94813 12.9375 6.04875 12.9375 6.25C12.9375 6.45125 12.9375 6.55044 12.926 6.63381C12.8894 6.89729 12.7678 7.14164 12.5797 7.32974C12.3916 7.51783 12.1473 7.63941 11.8838 7.676C11.8019 7.6875 11.7013 7.6875 11.5 7.6875C11.2987 7.6875 11.1996 7.6875 11.1162 7.676C10.8527 7.63941 10.6084 7.51783 10.4203 7.32974C10.2322 7.14164 10.1106 6.89729 10.074 6.63381C10.0625 6.55188 10.0625 6.45125 10.0625 6.25ZM10.0625 12C10.0625 11.7988 10.0625 11.6996 10.074 11.6162C10.1106 11.3527 10.2322 11.1084 10.4203 10.9203C10.6084 10.7322 10.8527 10.6106 11.1162 10.574C11.1981 10.5625 11.2987 10.5625 11.5 10.5625C11.7013 10.5625 11.8004 10.5625 11.8838 10.574C12.1473 10.6106 12.3916 10.7322 12.5797 10.9203C12.7678 11.1084 12.8894 11.3527 12.926 11.6162C12.9375 11.6981 12.9375 11.7988 12.9375 12C12.9375 12.2013 12.9375 12.3004 12.926 12.3838C12.8894 12.6473 12.7678 12.8916 12.5797 13.0797C12.3916 13.2678 12.1473 13.3894 11.8838 13.426C11.8019 13.4375 11.7013 13.4375 11.5 13.4375C11.2987 13.4375 11.1996 13.4375 11.1162 13.426C10.8527 13.3894 10.6084 13.2678 10.4203 13.0797C10.2322 12.8916 10.1106 12.6473 10.074 12.3838C10.0625 12.3019 10.0625 12.2013 10.0625 12ZM10.0625 17.75C10.0625 17.5502 10.0625 17.4496 10.074 17.3662C10.1108 17.1032 10.2323 16.8593 10.4201 16.6715C10.6079 16.4837 10.8517 16.3622 11.1147 16.3254C11.1996 16.3139 11.2988 16.3139 11.4986 16.3139C11.6984 16.3139 11.8004 16.3139 11.8824 16.3254C12.1454 16.3622 12.3892 16.4837 12.577 16.6715C12.7648 16.8593 12.8863 17.1032 12.9231 17.3662C12.9346 17.4496 12.9346 17.5502 12.9346 17.75C12.9346 17.9498 12.9346 18.0504 12.9231 18.1338C12.8863 18.3968 12.7648 18.6407 12.577 18.8285C12.3892 19.0163 12.1454 19.1378 11.8824 19.1746C11.799 19.1861 11.6984 19.1861 11.4986 19.1861C11.2988 19.1861 11.1981 19.1861 11.1147 19.1746C10.8517 19.1378 10.6079 19.0163 10.4201 18.8285C10.2323 18.6407 10.1108 18.3968 10.074 18.1338C10.0625 18.0504 10.0625 17.9498 10.0625 17.75Z" fill="#0072BC"/>
</svg>
