<svg width="24" height="20" viewBox="0 0 24 20" fill="none" xmlns="http://www.w3.org/2000/svg">
<path d="M4.51282 18.9412C4.51282 19.1006 4.45867 19.2336 4.35036 19.3402C4.24206 19.4467 4.10818 19.5 3.94872 19.5H0.911595C0.653612 19.5 0.436996 19.4136 0.261748 19.2407C0.0865005 19.0678 -0.000747315 18.8533 4.82139e-06 18.5969V15.5882C4.82139e-06 15.4295 0.0541587 15.2969 0.162466 15.1904C0.270774 15.0838 0.40503 15.0302 0.565235 15.0294C0.725441 15.0287 0.859321 15.0823 0.966877 15.1904C1.07443 15.2984 1.12821 15.431 1.12821 15.5882V18.3824H3.94872C4.10893 18.3824 4.24281 18.436 4.35036 18.5433C4.45792 18.6506 4.51207 18.7825 4.51282 18.9412ZM23.1282 15.0294C23.2892 15.0294 23.4234 15.0831 23.531 15.1904C23.6385 15.2976 23.6923 15.4303 23.6923 15.5882V18.5969C23.6923 18.8533 23.6051 19.0678 23.4306 19.2407C23.2561 19.4136 23.0395 19.5 22.7807 19.5H19.7436C19.5834 19.5 19.4495 19.4464 19.3419 19.3391C19.2344 19.2318 19.1802 19.0988 19.1795 18.9401C19.1787 18.7814 19.2329 18.6487 19.3419 18.5422C19.451 18.4356 19.5849 18.3824 19.7436 18.3824H22.5641V15.5882C22.5641 15.4295 22.6183 15.2969 22.7266 15.1904C22.8349 15.0838 22.968 15.0302 23.1282 15.0294ZM3.27631 16.7059C3.15447 16.7059 3.04804 16.6608 2.95703 16.5706C2.86602 16.4805 2.82052 16.3751 2.82052 16.2544V3.74565C2.82052 3.62495 2.86602 3.51951 2.95703 3.42936C3.04804 3.3392 3.15447 3.29412 3.27631 3.29412H4.62113C4.74298 3.29412 4.84941 3.3392 4.94041 3.42936C5.03142 3.51951 5.07693 3.62495 5.07693 3.74565V16.2544C5.07693 16.3751 5.03142 16.4805 4.94041 16.5706C4.84941 16.6608 4.74298 16.7059 4.62113 16.7059H3.27631ZM6.76923 16.7059C6.61881 16.7059 6.48718 16.65 6.37436 16.5382C6.26154 16.4265 6.20513 16.2961 6.20513 16.1471V3.85295C6.20513 3.70393 6.26154 3.57353 6.37436 3.46177C6.48718 3.35 6.61881 3.29412 6.76923 3.29412C6.91966 3.29412 7.05129 3.35 7.16411 3.46177C7.27693 3.57353 7.33334 3.70393 7.33334 3.85295V16.1471C7.33334 16.2961 7.27693 16.4265 7.16411 16.5382C7.05129 16.65 6.91966 16.7059 6.76923 16.7059ZM10.0455 16.7059C9.9237 16.7059 9.81727 16.6608 9.72626 16.5706C9.63525 16.4805 9.58975 16.3751 9.58975 16.2544V3.74565C9.58975 3.62495 9.63525 3.51951 9.72626 3.42936C9.81727 3.3392 9.9237 3.29412 10.0455 3.29412H11.3904C11.5122 3.29412 11.6186 3.3392 11.7096 3.42936C11.8007 3.51951 11.8462 3.62495 11.8462 3.74565V16.2544C11.8462 16.3751 11.8007 16.4805 11.7096 16.5706C11.6186 16.6608 11.5122 16.7059 11.3904 16.7059H10.0455ZM13.4302 16.7059C13.3083 16.7059 13.2019 16.6608 13.1109 16.5706C13.0199 16.4805 12.9744 16.3751 12.9744 16.2544V3.74565C12.9744 3.62495 13.0199 3.51951 13.1109 3.42936C13.2019 3.3392 13.3083 3.29412 13.4302 3.29412H15.9032C16.025 3.29412 16.1315 3.3392 16.2225 3.42936C16.3135 3.51951 16.359 3.62495 16.359 3.74565V16.2544C16.359 16.3751 16.3135 16.4805 16.2225 16.5706C16.1315 16.6608 16.025 16.7059 15.9032 16.7059H13.4302ZM18.0513 16.7059C17.9009 16.7059 17.7692 16.65 17.6564 16.5382C17.5436 16.4265 17.4872 16.2961 17.4872 16.1471V3.85295C17.4872 3.70393 17.5436 3.57353 17.6564 3.46177C17.7692 3.35 17.9009 3.29412 18.0513 3.29412C18.2017 3.29412 18.3333 3.35 18.4462 3.46177C18.559 3.57353 18.6154 3.70393 18.6154 3.85295V16.1471C18.6154 16.2961 18.559 16.4265 18.4462 16.5382C18.3333 16.65 18.2017 16.7059 18.0513 16.7059ZM20.3077 16.7059C20.1573 16.7059 20.0256 16.65 19.9128 16.5382C19.8 16.4265 19.7436 16.2961 19.7436 16.1471V3.85295C19.7436 3.70393 19.8 3.57353 19.9128 3.46177C20.0256 3.35 20.1573 3.29412 20.3077 3.29412C20.4581 3.29412 20.5897 3.35 20.7026 3.46177C20.8154 3.57353 20.8718 3.70393 20.8718 3.85295V16.1471C20.8718 16.2961 20.8154 16.4265 20.7026 16.5382C20.5897 16.65 20.4581 16.7059 20.3077 16.7059ZM4.51282 1.05883C4.51282 1.21828 4.45867 1.35128 4.35036 1.45783C4.24206 1.56438 4.10818 1.61765 3.94872 1.61765H1.12821V4.41177C1.12821 4.57047 1.07406 4.7031 0.965748 4.80965C0.857441 4.9162 0.723184 4.96985 0.562979 4.97059C0.402774 4.97134 0.268894 4.91769 0.161338 4.80965C0.0537826 4.70161 4.82139e-06 4.56898 4.82139e-06 4.41177V1.40306C4.82139e-06 1.14749 0.0872527 0.932907 0.261748 0.759299C0.436244 0.585691 0.65286 0.49926 0.911595 0.500005H3.94872C4.10893 0.500005 4.24281 0.553652 4.35036 0.660946C4.45792 0.76824 4.51207 0.900122 4.51282 1.05883ZM19.1795 1.05771C19.1795 0.899005 19.2336 0.766377 19.3419 0.659828C19.4503 0.553279 19.5841 0.500005 19.7436 0.500005H22.7807C23.0395 0.500005 23.2561 0.586436 23.4306 0.759299C23.6051 0.932162 23.6923 1.14675 23.6923 1.40306V4.41177C23.6923 4.57047 23.6382 4.7031 23.5298 4.80965C23.4215 4.9162 23.2873 4.96985 23.1271 4.97059C22.9669 4.97134 22.833 4.91769 22.7254 4.80965C22.6179 4.70161 22.5641 4.56898 22.5641 4.41177V1.61765H19.7436C19.5834 1.61765 19.4495 1.564 19.3419 1.45671C19.2344 1.34942 19.1802 1.21642 19.1795 1.05771Z" fill="#0072BC"/>
</svg>
