<svg width="27" height="32" viewBox="0 0 27 32" fill="none" xmlns="http://www.w3.org/2000/svg">
<g opacity="0.75">
<path d="M12.3438 20.5H14.6562V25H12.3438V20.5ZM18.125 18.25H20.4375V25H18.125V18.25ZM6.5625 13.75H8.875V25H6.5625V13.75Z" fill="#2A2929"/>
<path d="M23.9062 3.625H20.4375V2.5C20.4375 1.90326 20.1939 1.33097 19.7602 0.90901C19.3265 0.487053 18.7383 0.25 18.125 0.25H8.875C8.26169 0.25 7.67349 0.487053 7.23982 0.90901C6.80614 1.33097 6.5625 1.90326 6.5625 2.5V3.625H3.09375C2.48044 3.625 1.89224 3.86205 1.45857 4.28401C1.02489 4.70597 0.78125 5.27826 0.78125 5.875V29.5C0.78125 30.0967 1.02489 30.669 1.45857 31.091C1.89224 31.5129 2.48044 31.75 3.09375 31.75H23.9062C24.5196 31.75 25.1078 31.5129 25.5414 31.091C25.9751 30.669 26.2188 30.0967 26.2188 29.5V5.875C26.2188 5.27826 25.9751 4.70597 25.5414 4.28401C25.1078 3.86205 24.5196 3.625 23.9062 3.625ZM8.875 2.5H18.125V7H8.875V2.5ZM23.9062 29.5H3.09375V5.875H6.5625V9.25H20.4375V5.875H23.9062V29.5Z" fill="#2A2929"/>
</g>
</svg>
