<svg width="31" height="31" viewBox="0 0 31 31" fill="none" xmlns="http://www.w3.org/2000/svg">
<g opacity="0.75">
<path d="M24.75 1.625C25.9766 1.625 27.153 2.11228 28.0204 2.97963C28.8877 3.84699 29.375 5.02337 29.375 6.25V9.55379C29.375 10.0687 29.375 10.3262 29.2563 10.5142C29.1948 10.6121 29.1121 10.6948 29.0143 10.7563C28.8262 10.875 28.5687 10.875 28.0538 10.875H20.125M24.75 1.625C23.5234 1.625 22.347 2.11228 21.4796 2.97963C20.6123 3.84699 20.125 5.02337 20.125 6.25V10.875M24.75 1.625H7.79167C4.88408 1.625 3.43183 1.625 2.52842 2.52842C1.625 3.43183 1.625 4.88408 1.625 7.79167V29.375L6.25 27.8333L10.875 29.375L15.5 27.8333L20.125 29.375V10.875" stroke="#2A2929" stroke-width="1.41667"/>
<path d="M7.79199 7.79169H13.9587M9.33366 13.9584H7.79199M7.79199 20.125H12.417" stroke="#2A2929" stroke-width="1.41667" stroke-linecap="round"/>
</g>
</svg>
