<svg width="27" height="30" viewBox="0 0 27 30" fill="none" xmlns="http://www.w3.org/2000/svg">
<g opacity="0.75">
<path d="M4.45537 28.5C2.63928 28.5 1.16699 27.03 1.16699 25.215V12.012C1.16699 11.0145 1.62178 10.0695 2.40033 9.44699L11.4453 2.21999C12.0232 1.75436 12.75 1.49957 13.5003 1.49957C14.2507 1.49957 14.9775 1.75436 15.5554 2.21999L24.5988 9.44699C25.3789 10.0695 25.8337 11.0145 25.8337 12.012V25.215C25.8337 27.03 24.3614 28.5 22.5453 28.5H4.45537Z" stroke="#2A2929" stroke-width="1.5" stroke-linecap="round" stroke-linejoin="round"/>
<path d="M9.64648 28.5V20.25C9.64648 19.4544 9.97134 18.6913 10.5496 18.1287C11.1278 17.5661 11.9121 17.25 12.7298 17.25H14.2715C15.0892 17.25 15.8735 17.5661 16.4517 18.1287C17.03 18.6913 17.3548 19.4544 17.3548 20.25V28.5" stroke="#2A2929" stroke-width="1.5" stroke-linecap="round" stroke-linejoin="round"/>
</g>
</svg>
