<svg width="37" height="30" viewBox="0 0 37 30" fill="none" xmlns="http://www.w3.org/2000/svg">
<g opacity="0.75">
<path d="M32.3753 7.5V24.9C32.3753 26.895 30.7257 28.5 28.6753 28.5H8.32533C6.27491 28.5 4.62533 26.895 4.62533 24.9V7.5M12.3337 13.5H24.667M4.00866 1.5H32.992C33.6462 1.5 34.2736 1.75286 34.7362 2.20294C35.1988 2.65303 35.4587 3.26348 35.4587 3.9V5.1C35.4587 5.41517 35.3949 5.72726 35.2709 6.01844C35.1469 6.30962 34.9652 6.5742 34.7362 6.79706C34.5071 7.01992 34.2352 7.1967 33.9359 7.31731C33.6367 7.43792 33.3159 7.5 32.992 7.5H4.00866C3.35446 7.5 2.72705 7.24714 2.26446 6.79706C1.80187 6.34697 1.54199 5.73652 1.54199 5.1V3.9C1.54199 3.58483 1.60579 3.27274 1.72976 2.98156C1.85372 2.69038 2.03541 2.4258 2.26446 2.20294C2.72705 1.75286 3.35446 1.5 4.00866 1.5Z" stroke="#2A2929" stroke-width="1.5" stroke-miterlimit="10" stroke-linecap="round" stroke-linejoin="round"/>
</g>
</svg>
