<svg width="16" height="17" viewBox="0 0 16 17" fill="none" xmlns="http://www.w3.org/2000/svg">
<path d="M8 11.5C7.40666 11.5 6.82664 11.3241 6.33329 10.9944C5.83994 10.6648 5.45543 10.1962 5.22836 9.64805C5.0013 9.09987 4.94189 8.49667 5.05765 7.91473C5.1734 7.33279 5.45912 6.79824 5.87868 6.37868C6.29824 5.95912 6.83279 5.6734 7.41473 5.55765C7.99667 5.44189 8.59987 5.5013 9.14805 5.72836C9.69623 5.95543 10.1648 6.33994 10.4944 6.83329C10.8241 7.32664 11 7.90666 11 8.5C10.9991 9.29538 10.6828 10.0579 10.1203 10.6203C9.55793 11.1828 8.79538 11.4991 8 11.5ZM8 6.83333C7.67037 6.83333 7.34813 6.93108 7.07405 7.11422C6.79997 7.29735 6.58635 7.55765 6.4602 7.8622C6.33406 8.16674 6.30105 8.50185 6.36536 8.82515C6.42967 9.14845 6.5884 9.44543 6.82149 9.67851C7.05458 9.9116 7.35155 10.0703 7.67485 10.1346C7.99815 10.199 8.33326 10.1659 8.63781 10.0398C8.94235 9.91365 9.20265 9.70003 9.38578 9.42595C9.56892 9.15187 9.66667 8.82964 9.66667 8.5C9.66614 8.05814 9.49037 7.63452 9.17793 7.32207C8.86548 7.00963 8.44187 6.83386 8 6.83333Z" fill="#0072BC"/>
<path d="M7.99968 15.1666C6.68114 15.1666 5.3922 14.7757 4.29588 14.0431C3.19955 13.3106 2.34506 12.2694 1.84048 11.0512C1.3359 9.83303 1.20387 8.49259 1.46111 7.19938C1.71834 5.90617 2.35328 4.71829 3.28563 3.78594C4.21798 2.85359 5.40587 2.21865 6.69908 1.96141C7.99228 1.70418 9.33273 1.8362 10.5509 2.34079C11.7691 2.84537 12.8103 3.69985 13.5428 4.79618C14.2754 5.89251 14.6663 7.18144 14.6663 8.49998V8.99998C14.6663 9.66302 14.403 10.2989 13.9341 10.7678C13.4653 11.2366 12.8294 11.5 12.1663 11.5C11.5033 11.5 10.8674 11.2366 10.3986 10.7678C9.92974 10.2989 9.66634 9.66302 9.66634 8.99998V6.16665C9.66634 5.98984 9.73658 5.82027 9.86161 5.69524C9.98663 5.57022 10.1562 5.49998 10.333 5.49998C10.5098 5.49998 10.6794 5.57022 10.8044 5.69524C10.9294 5.82027 10.9997 5.98984 10.9997 6.16665V8.99998C10.9997 9.3094 11.1226 9.60615 11.3414 9.82494C11.5602 10.0437 11.8569 10.1666 12.1663 10.1666C12.4758 10.1666 12.7725 10.0437 12.9913 9.82494C13.2101 9.60615 13.333 9.3094 13.333 8.99998V8.49998C13.333 7.32593 12.9457 6.18467 12.231 5.25321C11.5163 4.32176 10.5142 3.65216 9.38014 3.34827C8.2461 3.04438 7.04347 3.12318 5.95878 3.57246C4.87409 4.02173 3.96795 4.81637 3.38091 5.83312C2.79387 6.84988 2.55873 8.03192 2.71197 9.19594C2.8652 10.3599 3.39824 11.4409 4.22842 12.2711C5.05859 13.1012 6.13951 13.6343 7.30352 13.7876C8.46753 13.9408 9.64958 13.7057 10.6663 13.1186C10.7422 13.0749 10.8259 13.0465 10.9128 13.0351C10.9996 13.0236 11.0879 13.0295 11.1724 13.0521C11.257 13.0748 11.3363 13.114 11.4058 13.1673C11.4753 13.2206 11.5336 13.2871 11.5773 13.363C11.6211 13.4388 11.6495 13.5226 11.6609 13.6094C11.6723 13.6963 11.6665 13.7845 11.6439 13.8691C11.6212 13.9537 11.582 14.033 11.5287 14.1024C11.4754 14.1719 11.4089 14.2302 11.333 14.274C10.3195 14.8589 9.16988 15.1668 7.99968 15.1666Z" fill="#0072BC"/>
</svg>
